<svg xmlns="http://www.w3.org/2000/svg" xmlns:xlink="http://www.w3.org/1999/xlink" width="60" height="60" viewBox="0 0 273 257">
    <defs>
        <path id="a" d="M0 .715h25.644v33.489H0z"/>
        <path id="c" d="M.653.794h111.723v153.513H.653z"/>
        <path id="e" d="M.328.794h77.325v131.907H.328z"/>
        <radialGradient id="g" cx="10.331%" cy="11.879%" r="467.67%" fx="10.331%" fy="11.879%" gradientTransform="matrix(.43541 .52772 -.90023 .25524 .165 .034)">
            <stop offset="0%" stop-color="#007AFF"/>
            <stop offset="100%" stop-color="#0F7"/>
        </radialGradient>
        <radialGradient id="h" cx="10.331%" cy="11.879%" r="396.795%" fx="10.331%" fy="11.879%" gradientTransform="matrix(.51319 .62198 -.85828 .3719 .152 .01)">
            <stop offset="0%" stop-color="#007AFF"/>
            <stop offset="100%" stop-color="#0F7"/>
        </radialGradient>
        <path id="i" d="M.328.794h189.048v109.165H.328z"/>
        <radialGradient id="j" cx="10.331%" cy="11.879%" r="430.422%" fx="10.331%" fy="11.879%" gradientTransform="scale(.57745 1) rotate(34.987 .141 .239)">
            <stop offset="0%" stop-color="#007AFF"/>
            <stop offset="100%" stop-color="#0F7"/>
        </radialGradient>
        <path id="l" d="M.214.74h90.108V57H.214z"/>
    </defs>
    <g fill="none" fill-rule="evenodd">
        <path fill="#2D3237" d="M18.397 133.323s1.795-3.707 10.233-3.281c0 0 6.247 2.33 10.673 8.227 4.756 6.334 7.607 16.485 4.177 23.18 0 0-4.496 4.673-9.299 5.648l-15.784-33.774z"/>
        <path fill="#40474C" d="M35.586 145.048c5.026 9.048 4.946 18.691-.18 21.54-5.125 2.846-13.354-2.179-18.381-11.227-5.026-9.046-4.947-18.69.179-21.538 5.125-2.846 13.355 2.178 18.382 11.225"/>
        <path fill="#2D3237" d="M5.998 139.243s1.795-3.708 10.233-3.281c0 0 6.246 2.33 10.672 8.225 4.757 6.336 7.608 16.487 4.178 23.182 0 0-4.495 4.673-9.3 5.648L5.999 139.243z"/>
        <path fill="#40474C" d="M23.185 150.968c5.027 9.048 4.946 18.69-.179 21.538-5.126 2.848-13.355-2.179-18.38-11.225-5.028-9.047-4.948-18.692.178-21.538 5.125-2.847 13.355 2.178 18.381 11.225"/>
        <g transform="translate(0 139.206)">
            <mask id="b" fill="#fff">
                <use xlink:href="#a"/>
            </mask>
            <path fill="#2D3237" d="M22.102 12.304c4.887 8.796 4.693 18.234-.432 21.082-5.125 2.846-13.24-1.975-18.128-10.769-4.887-8.797-4.694-18.236.432-21.084C9.1-1.314 17.215 3.508 22.102 12.304" mask="url(#b)"/>
        </g>
        <path fill="#CFD2F6" d="M18.348 153.595c2.911 5.24 2.795 10.86-.258 12.557-3.05 1.695-7.885-1.178-10.795-6.417-2.91-5.238-2.795-10.859.257-12.554 3.053-1.695 7.886 1.177 10.796 6.414"/>
        <path fill="#57585B" d="M14.334 155.827c.797 1.433.765 2.97-.07 3.434-.834.463-2.158-.322-2.953-1.754-.796-1.434-.765-2.971.07-3.435.835-.464 2.157.32 2.953 1.755"/>
        <path fill="#2D3237" d="M48.164 148.998s1.795-3.708 10.233-3.28c0 0 6.246 2.33 10.672 8.225 4.757 6.334 7.608 16.486 4.178 23.18 0 0-4.495 4.675-9.3 5.649l-15.783-33.774z"/>
        <path fill="#40474C" d="M65.351 160.724c5.027 9.05 4.946 18.691-.179 21.54-5.126 2.845-13.355-2.18-18.38-11.228-5.027-9.047-4.948-18.69.178-21.538 5.125-2.845 13.355 2.18 18.381 11.226"/>
        <path fill="#2D3237" d="M35.764 154.917s1.795-3.708 10.233-3.28c0 0 6.246 2.33 10.672 8.225 4.757 6.335 7.608 16.486 4.178 23.181 0 0-4.496 4.673-9.299 5.648l-15.784-33.774z"/>
        <path fill="#40474C" d="M52.952 166.644c5.026 9.049 4.947 18.691-.18 21.537-5.124 2.848-13.354-2.178-18.38-11.225-5.027-9.047-4.947-18.69.178-21.538 5.126-2.847 13.355 2.18 18.382 11.226"/>
        <path fill="#2D3237" d="M51.868 167.184c4.888 8.797 4.694 18.235-.432 21.083-5.125 2.848-13.241-1.975-18.127-10.77-4.886-8.795-4.694-18.235.432-21.082 5.125-2.846 13.24 1.976 18.127 10.769"/>
        <path fill="#CFD2F6" d="M48.115 169.27c2.91 5.239 2.796 10.86-.257 12.556-3.052 1.695-7.886-1.177-10.796-6.414-2.91-5.238-2.795-10.86.257-12.555 3.053-1.695 7.887 1.176 10.796 6.413"/>
        <path fill="#57585B" d="M44.101 171.5c.796 1.434.763 2.971-.07 3.435-.835.463-2.158-.32-2.954-1.755-.796-1.433-.765-2.969.07-3.434.835-.464 2.157.323 2.954 1.754"/>
        <path fill="#2D3237" d="M110.68 196.018l28.833 17.993.265-14.065-28.834-17.994zM79.254 195.869l23.873 14.217v-15.414L79.254 179.96z"/>
        <path fill="#2D3237" d="M118.052 185.779l-14.926 8.893v15.414l14.925-8.815zM79.254 179.96l15.189-8.957 23.609 14.775-14.925 8.893z"/>
        <g transform="translate(83 -.794)">
            <mask id="d" fill="#fff">
                <use xlink:href="#c"/>
            </mask>
            <path fill="#101A53" d="M.653.793L112.376 66.18v88.127L.653 88.922z" mask="url(#d)"/>
        </g>
        <g transform="translate(6 -.794)">
            <mask id="f" fill="#fff">
                <use xlink:href="#e"/>
            </mask>
            <path fill="#1E3189" d="M.328 44.574L77.653.794v88.128L.328 132.7z" mask="url(#f)"/>
        </g>
        <path fill="url(#g)" d="M118.052 110.165l77.323-43.78v88.128l-77.323 43.78z" transform="translate(0 -1)"/>
        <path fill="url(#h)" d="M6.328 44.123l111.724 65.385v88.784L6.328 132.906z" transform="translate(0 -1)"/>
        <path fill="#000" d="M118.052 109.165l77.323-43.78v88.128l-77.323 43.78zM6.328 43.123l111.724 65.385v88.784L6.328 131.906z" opacity=".213"/>
        <g transform="translate(6 -.794)">
            <mask id="k" fill="#fff">
                <use xlink:href="#i"/>
            </mask>
            <path fill="url(#j)" d="M.328 44.574L77.653.794l111.723 65.385-77.324 43.78z" mask="url(#k)"/>
        </g>
        <path fill="#2D3237" d="M129.594 203.505s2.388-4.934 13.615-4.365c0 0 8.311 3.1 14.2 10.945 6.33 8.43 10.124 21.937 5.559 30.844 0 0-5.98 6.22-12.373 7.517l-21.001-44.94z"/>
        <path fill="#40474C" d="M152.464 219.109c6.687 12.039 6.582 24.869-.238 28.658-6.82 3.789-17.771-2.898-24.458-14.936-6.69-12.038-6.582-24.87.237-28.658 6.819-3.79 17.77 2.898 24.459 14.936"/>
        <path fill="#2D3237" d="M151.021 219.829c6.502 11.705 6.246 24.264-.574 28.053-6.82 3.787-17.618-2.628-24.12-14.331-6.503-11.703-6.245-24.263.573-28.052 6.82-3.788 17.62 2.628 24.121 14.33"/>
        <path fill="#CFD2F6" d="M146.027 222.604c3.872 6.97 3.72 14.449-.342 16.707-4.06 2.256-10.492-1.566-14.365-8.536-3.872-6.97-3.719-14.448.342-16.706 4.061-2.255 10.493 1.566 14.365 8.535"/>
        <path fill="#57585B" d="M140.685 225.573c1.06 1.906 1.018 3.953-.094 4.569-1.11.618-2.87-.427-3.928-2.335-1.06-1.906-1.019-3.953.093-4.57 1.111-.616 2.87.429 3.93 2.336"/>
        <path fill="#BFD9E6" d="M136.53 124.517v72.775s22.458 7.676 25.585 37.81l33.261 18.194v-43.211l-17.91-63.678-40.936-21.89z"/>
        <path fill="#CDEAFB" d="M136.53 124.517l73.958-42.359 40.938 21.889-73.96 42.36zM177.466 146.407l17.91 63.679 73.959-42.358-17.91-63.68z"/>
        <path fill="#BFD9E6" d="M195.376 210.085l73.959-42.357v43.21l-73.96 42.358z"/>
        <path fill="#0068FF" d="M177.466 152.945l8.687 35.96v9.006l-16.363-11.136s-2.843-12.225-17.342-17.626V138.73l25.018 14.214zM186.185 156.588l9.191 38.355c.385 3.24 4.022 3.933 8.114 1.552l27.816-15.785 9.918-5.628 2.701-1.534 1.976-1.12 8.28-4.698c.32-.185.64-.393.942-.608 3.614-2.487 6.14-6.595 5.788-9.576l-9.193-38.357c-.383-3.238-4.019-3.933-8.12-1.543l-15.259 8.656-9.263 5.252-1.966 1.12-2.71 1.534-15.834 8.983-5.659 3.213c-4.09 2.381-7.105 6.946-6.722 10.184"/>
        <g fill="#FFF">
            <path d="M219.076 131.554l26.825 40.874 8.279-4.698c.32-.185.64-.393.944-.608l-26.784-40.82-9.264 5.252zM241.224 175.083L214.4 134.209l2.71-1.535 26.815 40.875z"/>
        </g>
        <path fill="#0054AE" d="M186.185 156.588l9.191 38.355c.385 3.24 4.022 3.933 8.114 1.552l27.816-15.785-32.74-37.519-5.659 3.213c-4.09 2.381-7.105 6.946-6.722 10.184"/>
        <path fill="#FFCF00" d="M206.604 210.511v16.467l-7.106 4.11V214.6zM264.495 178.006v15.427l-5.941 3.851v-15.447z"/>
        <path fill="#2D3237" d="M217.187 205.438a.415.415 0 0 0 .192-.053l30.593-17.663a.405.405 0 0 0 .15-.551.407.407 0 0 0-.553-.148l-30.592 17.662a.405.405 0 0 0 .21.753M217.187 210.192a.416.416 0 0 0 .192-.054l30.593-17.662a.405.405 0 0 0 .15-.551.407.407 0 0 0-.553-.148l-30.592 17.662a.403.403 0 0 0 .21.753M217.187 214.945a.403.403 0 0 0 .192-.053l30.593-17.662a.406.406 0 0 0 .15-.552.409.409 0 0 0-.553-.147l-30.592 17.662a.404.404 0 0 0 .21.752M217.187 219.699a.415.415 0 0 0 .192-.053l30.593-17.663a.405.405 0 0 0 .15-.551.407.407 0 0 0-.553-.148l-30.592 17.662a.405.405 0 0 0 .21.753"/>
        <g transform="translate(182 199.206)">
            <mask id="m" fill="#fff">
                <use xlink:href="#l"/>
            </mask>
            <path fill="#2D3237" d="M90.322.74v12.698s-33.29 28.05-77.61 43.4c0 0-10.221 1.518-12.498-4.738l.048-10.226s7.287 2.858 18.753-1.713C43.893 30.24 85.064 7.486 90.322.74" mask="url(#m)"/>
        </g>
        <path fill="#57585B" d="M269.466 198.054s-59.782 38.091-75.936 42.261c0 0-7.091.188-9.652-3.223 0 0-3.742 3.98 0 5.875s6.895 3.412 9.85 2.843c1.37-.265 19.472-8.283 34.669-16.11 17.552-9.04 33.05-18.68 43.925-29.754 0 0-.591-.94-2.856-1.892"/>
    </g>
</svg>
