<svg xmlns="http://www.w3.org/2000/svg" xmlns:xlink="http://www.w3.org/1999/xlink" width="50" height="50" viewBox="0 0 20 20">
    <defs>
        <path id="a" d="M14.316 0C15.246 0 16 .755 16 1.684v6.737c0 .93-.755 1.684-1.684 1.684H7.579c-.127 0-.251-.017-.37-.044l-.77.768 1.185 1.184-1.191 1.192-1.185-1.185-1.666 1.667 1.168 1.168-1.19 1.19-1.168-1.168-1.201 1.201L0 14.888l2.49-2.49-1.176-1.178 1.19-1.19 1.177 1.177L5.976 8.91a1.66 1.66 0 0 1-.081-.49V1.684C5.895.754 6.649 0 7.579 0zm-.842 1.684H8.42a.841.841 0 0 0-.842.842V7.58c0 .466.376.842.842.842h5.053a.841.841 0 0 0 .842-.842V2.526a.841.841 0 0 0-.842-.842zm-2.527.842c.466 0 .842.377.842.842v.843h.843a.841.841 0 1 1 0 1.684h-2.527V3.368c0-.465.377-.842.842-.842z"/>
    </defs>
    <g fill="none" fill-rule="evenodd" transform="translate(2 2)">
        <mask id="b" fill="#FFFFFF">
            <use xlink:href="#a"/>
        </mask>
        <use fill="#FFFFFF" xlink:href="#a"/>
        <g fill="#FFFFFF" mask="url(#b)">
            <path d="M-22-22h59v59h-59z"/>
        </g>
    </g>
</svg>
