<svg xmlns="http://www.w3.org/2000/svg" width="51" height="70" viewBox="0 0 51 70">
    <g fill="none" fill-rule="nonzero">
        <path fill="#0088F1" d="M25.5 70l-1.57-1.726C22.95 67.315 0 40.849 0 24.932 0 11.123 11.377 0 25.5 0S51 11.123 51 24.932c0 15.917-22.95 42.383-23.93 43.534L25.5 70z"/>
        <path fill="#FFF" d="M26.444 34.054c-5.288 0-9.444-4.162-9.444-9.46 0-5.297 4.156-9.459 9.444-9.459 5.29 0 9.445 4.162 9.445 9.46 0 5.297-4.156 9.46-9.445 9.46zm0-15.135c-3.21 0-5.666 2.46-5.666 5.676s2.455 5.675 5.666 5.675c3.212 0 5.667-2.46 5.667-5.675 0-3.217-2.455-5.676-5.667-5.676z"/>
    </g>
</svg>
