<svg xmlns="http://www.w3.org/2000/svg" width="50" height="50" viewBox="0 0 18 32">
    <path fill="#FFF" fill-rule="nonzero" d="M1.73.13C.785.13 0 .944 0 1.928v28.045c0 .983.784 1.798 1.73 1.798h14.54c.946 0 1.73-.815 1.73-1.798V1.928C18 .944 17.216.13 16.27.13H1.73zm0 1.438h14.54c.203 0 .345.148.345.36v1.798H1.385V1.928c0-.212.142-.36.346-.36zm-.345 3.596h15.23v20.135H1.385V5.164zm0 21.573h15.23v3.236c0 .212-.142.36-.346.36H1.731c-.204 0-.346-.148-.346-.36v-3.236zm7.615.72c-.574 0-1.038.482-1.038 1.078 0 .595.464 1.078 1.038 1.078.574 0 1.038-.483 1.038-1.078 0-.596-.464-1.079-1.038-1.079z"/>
</svg>
